<mxfile host="app.diagrams.net" modified="2020-12-16T07:03:30.052Z" agent="5.0 (Macintosh; Intel Mac OS X 10_15_7) AppleWebKit/537.36 (KHTML, like Gecko) Chrome/87.0.4280.88 Safari/537.36" etag="_rqp5BzSRwPqZOFv35Qm" version="14.0.3" type="github">
  <diagram id="LY2Codab3YnhHiz8OKky" name="第 1 页">
    <mxGraphModel dx="1426" dy="844" grid="1" gridSize="10" guides="1" tooltips="1" connect="1" arrows="1" fold="1" page="1" pageScale="1" pageWidth="1169" pageHeight="827" math="0" shadow="0">
      <root>
        <mxCell id="0" />
        <mxCell id="1" parent="0" />
        <mxCell id="-1yst3b768saj9NJsJvU-1" value="" style="rounded=0;whiteSpace=wrap;html=1;strokeWidth=2;" vertex="1" parent="1">
          <mxGeometry x="80" y="180" width="80" height="120" as="geometry" />
        </mxCell>
        <mxCell id="-1yst3b768saj9NJsJvU-2" value="&lt;font style=&quot;font-size: 16px&quot;&gt;free 0&lt;/font&gt;" style="rounded=0;whiteSpace=wrap;html=1;strokeWidth=2;" vertex="1" parent="1">
          <mxGeometry x="80" y="180" width="80" height="40" as="geometry" />
        </mxCell>
        <mxCell id="-1yst3b768saj9NJsJvU-3" value="&lt;font style=&quot;font-size: 16px&quot;&gt;SDS&lt;/font&gt;" style="text;html=1;align=center;verticalAlign=middle;resizable=0;points=[];autosize=1;" vertex="1" parent="1">
          <mxGeometry x="95" y="150" width="50" height="20" as="geometry" />
        </mxCell>
        <mxCell id="-1yst3b768saj9NJsJvU-4" value="&lt;font style=&quot;font-size: 16px&quot;&gt;len 5&lt;/font&gt;" style="rounded=0;whiteSpace=wrap;html=1;strokeWidth=2;" vertex="1" parent="1">
          <mxGeometry x="80" y="220" width="80" height="40" as="geometry" />
        </mxCell>
        <mxCell id="-1yst3b768saj9NJsJvU-7" value="" style="edgeStyle=orthogonalEdgeStyle;rounded=0;orthogonalLoop=1;jettySize=auto;html=1;strokeWidth=2;" edge="1" parent="1" source="-1yst3b768saj9NJsJvU-5" target="-1yst3b768saj9NJsJvU-6">
          <mxGeometry relative="1" as="geometry" />
        </mxCell>
        <mxCell id="-1yst3b768saj9NJsJvU-5" value="&lt;font style=&quot;font-size: 16px&quot;&gt;buf&lt;/font&gt;" style="rounded=0;whiteSpace=wrap;html=1;strokeWidth=2;" vertex="1" parent="1">
          <mxGeometry x="80" y="260" width="80" height="40" as="geometry" />
        </mxCell>
        <mxCell id="-1yst3b768saj9NJsJvU-6" value="" style="rounded=0;whiteSpace=wrap;html=1;strokeWidth=2;" vertex="1" parent="1">
          <mxGeometry x="210" y="260" width="480" height="40" as="geometry" />
        </mxCell>
        <mxCell id="-1yst3b768saj9NJsJvU-8" value="&lt;font style=&quot;font-size: 16px&quot;&gt;&#39; R &#39;&lt;/font&gt;" style="rounded=0;whiteSpace=wrap;html=1;strokeWidth=2;" vertex="1" parent="1">
          <mxGeometry x="210" y="260" width="80" height="40" as="geometry" />
        </mxCell>
        <mxCell id="-1yst3b768saj9NJsJvU-9" value="&lt;font style=&quot;font-size: 16px&quot;&gt;&#39; e &#39;&lt;/font&gt;" style="rounded=0;whiteSpace=wrap;html=1;strokeWidth=2;" vertex="1" parent="1">
          <mxGeometry x="290" y="260" width="80" height="40" as="geometry" />
        </mxCell>
        <mxCell id="-1yst3b768saj9NJsJvU-10" value="&lt;font style=&quot;font-size: 16px&quot;&gt;&#39; d &#39;&lt;/font&gt;" style="rounded=0;whiteSpace=wrap;html=1;strokeWidth=2;" vertex="1" parent="1">
          <mxGeometry x="370" y="260" width="80" height="40" as="geometry" />
        </mxCell>
        <mxCell id="-1yst3b768saj9NJsJvU-11" value="&lt;font style=&quot;font-size: 16px&quot;&gt;&#39; i &#39;&lt;/font&gt;" style="rounded=0;whiteSpace=wrap;html=1;strokeWidth=2;" vertex="1" parent="1">
          <mxGeometry x="450" y="260" width="80" height="40" as="geometry" />
        </mxCell>
        <mxCell id="-1yst3b768saj9NJsJvU-12" value="&lt;font style=&quot;font-size: 16px&quot;&gt;&#39; s &#39;&lt;/font&gt;" style="rounded=0;whiteSpace=wrap;html=1;strokeWidth=2;" vertex="1" parent="1">
          <mxGeometry x="530" y="260" width="80" height="40" as="geometry" />
        </mxCell>
        <mxCell id="-1yst3b768saj9NJsJvU-13" value="&lt;font style=&quot;font-size: 16px&quot;&gt;&#39;&amp;nbsp; \0 &#39;&lt;/font&gt;" style="rounded=0;whiteSpace=wrap;html=1;strokeWidth=2;" vertex="1" parent="1">
          <mxGeometry x="610" y="260" width="80" height="40" as="geometry" />
        </mxCell>
        <mxCell id="-1yst3b768saj9NJsJvU-15" value="" style="rounded=0;whiteSpace=wrap;html=1;strokeWidth=2;" vertex="1" parent="1">
          <mxGeometry x="65" y="470" width="80" height="120" as="geometry" />
        </mxCell>
        <mxCell id="-1yst3b768saj9NJsJvU-16" value="&lt;font style=&quot;font-size: 16px&quot;&gt;free 5&lt;/font&gt;" style="rounded=0;whiteSpace=wrap;html=1;strokeWidth=2;" vertex="1" parent="1">
          <mxGeometry x="65" y="470" width="80" height="40" as="geometry" />
        </mxCell>
        <mxCell id="-1yst3b768saj9NJsJvU-17" value="&lt;font style=&quot;font-size: 16px&quot;&gt;SDS&lt;/font&gt;" style="text;html=1;align=center;verticalAlign=middle;resizable=0;points=[];autosize=1;" vertex="1" parent="1">
          <mxGeometry x="80" y="440" width="50" height="20" as="geometry" />
        </mxCell>
        <mxCell id="-1yst3b768saj9NJsJvU-18" value="&lt;font style=&quot;font-size: 16px&quot;&gt;len 5&lt;/font&gt;" style="rounded=0;whiteSpace=wrap;html=1;strokeWidth=2;" vertex="1" parent="1">
          <mxGeometry x="65" y="510" width="80" height="40" as="geometry" />
        </mxCell>
        <mxCell id="-1yst3b768saj9NJsJvU-19" value="" style="edgeStyle=orthogonalEdgeStyle;rounded=0;orthogonalLoop=1;jettySize=auto;html=1;strokeWidth=2;" edge="1" source="-1yst3b768saj9NJsJvU-20" parent="1">
          <mxGeometry relative="1" as="geometry">
            <mxPoint x="195" y="570.5" as="targetPoint" />
          </mxGeometry>
        </mxCell>
        <mxCell id="-1yst3b768saj9NJsJvU-20" value="&lt;font style=&quot;font-size: 16px&quot;&gt;buf&lt;/font&gt;" style="rounded=0;whiteSpace=wrap;html=1;strokeWidth=2;" vertex="1" parent="1">
          <mxGeometry x="65" y="550" width="80" height="40" as="geometry" />
        </mxCell>
        <mxCell id="-1yst3b768saj9NJsJvU-22" value="&lt;font style=&quot;font-size: 16px&quot;&gt;&#39; R &#39;&lt;/font&gt;" style="rounded=0;whiteSpace=wrap;html=1;strokeWidth=2;" vertex="1" parent="1">
          <mxGeometry x="195" y="550" width="80" height="40" as="geometry" />
        </mxCell>
        <mxCell id="-1yst3b768saj9NJsJvU-23" value="&lt;font style=&quot;font-size: 16px&quot;&gt;&#39; e &#39;&lt;/font&gt;" style="rounded=0;whiteSpace=wrap;html=1;strokeWidth=2;" vertex="1" parent="1">
          <mxGeometry x="275" y="550" width="80" height="40" as="geometry" />
        </mxCell>
        <mxCell id="-1yst3b768saj9NJsJvU-24" value="&lt;font style=&quot;font-size: 16px&quot;&gt;&#39; d &#39;&lt;/font&gt;" style="rounded=0;whiteSpace=wrap;html=1;strokeWidth=2;" vertex="1" parent="1">
          <mxGeometry x="355" y="550" width="80" height="40" as="geometry" />
        </mxCell>
        <mxCell id="-1yst3b768saj9NJsJvU-25" value="&lt;font style=&quot;font-size: 16px&quot;&gt;&#39; i &#39;&lt;/font&gt;" style="rounded=0;whiteSpace=wrap;html=1;strokeWidth=2;" vertex="1" parent="1">
          <mxGeometry x="435" y="550" width="80" height="40" as="geometry" />
        </mxCell>
        <mxCell id="-1yst3b768saj9NJsJvU-26" value="&lt;font style=&quot;font-size: 16px&quot;&gt;&#39; s &#39;&lt;/font&gt;" style="rounded=0;whiteSpace=wrap;html=1;strokeWidth=2;" vertex="1" parent="1">
          <mxGeometry x="515" y="550" width="80" height="40" as="geometry" />
        </mxCell>
        <mxCell id="-1yst3b768saj9NJsJvU-27" value="&lt;font style=&quot;font-size: 16px&quot;&gt;&#39;&amp;nbsp; \0 &#39;&lt;/font&gt;" style="rounded=0;whiteSpace=wrap;html=1;strokeWidth=2;" vertex="1" parent="1">
          <mxGeometry x="595" y="550" width="80" height="40" as="geometry" />
        </mxCell>
        <mxCell id="-1yst3b768saj9NJsJvU-28" value="" style="rounded=0;whiteSpace=wrap;html=1;strokeWidth=2;" vertex="1" parent="1">
          <mxGeometry x="675" y="550" width="80" height="40" as="geometry" />
        </mxCell>
        <mxCell id="-1yst3b768saj9NJsJvU-29" value="" style="rounded=0;whiteSpace=wrap;html=1;strokeWidth=2;" vertex="1" parent="1">
          <mxGeometry x="755" y="550" width="80" height="40" as="geometry" />
        </mxCell>
        <mxCell id="-1yst3b768saj9NJsJvU-30" value="" style="rounded=0;whiteSpace=wrap;html=1;strokeWidth=2;" vertex="1" parent="1">
          <mxGeometry x="835" y="550" width="80" height="40" as="geometry" />
        </mxCell>
        <mxCell id="-1yst3b768saj9NJsJvU-31" value="" style="rounded=0;whiteSpace=wrap;html=1;strokeWidth=2;" vertex="1" parent="1">
          <mxGeometry x="915" y="550" width="80" height="40" as="geometry" />
        </mxCell>
        <mxCell id="-1yst3b768saj9NJsJvU-32" value="" style="rounded=0;whiteSpace=wrap;html=1;strokeWidth=2;" vertex="1" parent="1">
          <mxGeometry x="995" y="550" width="80" height="40" as="geometry" />
        </mxCell>
        <mxCell id="-1yst3b768saj9NJsJvU-33" value="8" style="text;html=1;strokeColor=none;fillColor=none;align=center;verticalAlign=middle;whiteSpace=wrap;rounded=0;" vertex="1" parent="1">
          <mxGeometry x="730" y="430" width="40" height="20" as="geometry" />
        </mxCell>
      </root>
    </mxGraphModel>
  </diagram>
</mxfile>
